<mxfile host="app.diagrams.net" modified="2023-11-06T02:44:59.543Z" agent="Mozilla/5.0 (Macintosh; Intel Mac OS X 10_15_7) AppleWebKit/537.36 (KHTML, like Gecko) Chrome/118.0.0.0 Safari/537.36" etag="IcVNTk2Km6PIXIoWPeAB" version="22.0.8" type="device">
  <diagram name="Trang-1" id="hM9p9nCp5cvB3GkVEFQl">
    <mxGraphModel dx="1194" dy="790" grid="1" gridSize="10" guides="1" tooltips="1" connect="1" arrows="1" fold="1" page="1" pageScale="1" pageWidth="827" pageHeight="1169" math="0" shadow="0">
      <root>
        <mxCell id="0" />
        <mxCell id="1" parent="0" />
        <mxCell id="B0IMBx4CsGX2oSIAb3AN-1" value="Start" style="ellipse;whiteSpace=wrap;html=1;" vertex="1" parent="1">
          <mxGeometry x="240" y="80" width="120" height="80" as="geometry" />
        </mxCell>
        <mxCell id="B0IMBx4CsGX2oSIAb3AN-2" value="ax + b = 0" style="rounded=0;whiteSpace=wrap;html=1;" vertex="1" parent="1">
          <mxGeometry x="600" y="20" width="120" height="60" as="geometry" />
        </mxCell>
        <mxCell id="B0IMBx4CsGX2oSIAb3AN-3" value="a,b" style="shape=parallelogram;perimeter=parallelogramPerimeter;whiteSpace=wrap;html=1;fixedSize=1;" vertex="1" parent="1">
          <mxGeometry x="240" y="210" width="120" height="60" as="geometry" />
        </mxCell>
        <mxCell id="B0IMBx4CsGX2oSIAb3AN-4" value="a = 0" style="rhombus;whiteSpace=wrap;html=1;" vertex="1" parent="1">
          <mxGeometry x="260" y="300" width="80" height="80" as="geometry" />
        </mxCell>
        <mxCell id="B0IMBx4CsGX2oSIAb3AN-6" value="b = 0" style="rhombus;whiteSpace=wrap;html=1;" vertex="1" parent="1">
          <mxGeometry x="110" y="300" width="80" height="80" as="geometry" />
        </mxCell>
        <mxCell id="B0IMBx4CsGX2oSIAb3AN-7" value="b khac 0" style="rhombus;whiteSpace=wrap;html=1;" vertex="1" parent="1">
          <mxGeometry x="414" y="300" width="80" height="80" as="geometry" />
        </mxCell>
        <mxCell id="B0IMBx4CsGX2oSIAb3AN-8" value="pt vô số nghiệm" style="shape=parallelogram;perimeter=parallelogramPerimeter;whiteSpace=wrap;html=1;fixedSize=1;" vertex="1" parent="1">
          <mxGeometry x="90" y="450" width="120" height="60" as="geometry" />
        </mxCell>
        <mxCell id="B0IMBx4CsGX2oSIAb3AN-9" value="pt vô nghiệm" style="shape=parallelogram;perimeter=parallelogramPerimeter;whiteSpace=wrap;html=1;fixedSize=1;" vertex="1" parent="1">
          <mxGeometry x="394" y="450" width="120" height="60" as="geometry" />
        </mxCell>
        <mxCell id="B0IMBx4CsGX2oSIAb3AN-10" value="a khác 0" style="rhombus;whiteSpace=wrap;html=1;" vertex="1" parent="1">
          <mxGeometry x="260" y="440" width="80" height="80" as="geometry" />
        </mxCell>
        <mxCell id="B0IMBx4CsGX2oSIAb3AN-11" value="pt có nghiệm -b/a" style="shape=parallelogram;perimeter=parallelogramPerimeter;whiteSpace=wrap;html=1;fixedSize=1;" vertex="1" parent="1">
          <mxGeometry x="240" y="580" width="120" height="60" as="geometry" />
        </mxCell>
        <mxCell id="B0IMBx4CsGX2oSIAb3AN-12" value="" style="endArrow=classic;html=1;rounded=0;" edge="1" parent="1">
          <mxGeometry width="50" height="50" relative="1" as="geometry">
            <mxPoint x="299.5" y="520" as="sourcePoint" />
            <mxPoint x="300" y="580" as="targetPoint" />
          </mxGeometry>
        </mxCell>
        <mxCell id="B0IMBx4CsGX2oSIAb3AN-13" value="" style="endArrow=classic;html=1;rounded=0;entryX=0.5;entryY=0;entryDx=0;entryDy=0;" edge="1" parent="1" target="B0IMBx4CsGX2oSIAb3AN-9">
          <mxGeometry width="50" height="50" relative="1" as="geometry">
            <mxPoint x="453.5" y="380" as="sourcePoint" />
            <mxPoint x="454" y="440" as="targetPoint" />
          </mxGeometry>
        </mxCell>
        <mxCell id="B0IMBx4CsGX2oSIAb3AN-14" value="" style="endArrow=classic;html=1;rounded=0;entryX=0.5;entryY=0;entryDx=0;entryDy=0;" edge="1" parent="1" target="B0IMBx4CsGX2oSIAb3AN-8">
          <mxGeometry width="50" height="50" relative="1" as="geometry">
            <mxPoint x="149.5" y="380" as="sourcePoint" />
            <mxPoint x="150" y="440" as="targetPoint" />
          </mxGeometry>
        </mxCell>
        <mxCell id="B0IMBx4CsGX2oSIAb3AN-15" value="" style="endArrow=classic;html=1;rounded=0;" edge="1" parent="1">
          <mxGeometry width="50" height="50" relative="1" as="geometry">
            <mxPoint x="299.5" y="380" as="sourcePoint" />
            <mxPoint x="300" y="440" as="targetPoint" />
          </mxGeometry>
        </mxCell>
        <mxCell id="B0IMBx4CsGX2oSIAb3AN-16" value="" style="endArrow=classic;html=1;rounded=0;entryX=0;entryY=0.5;entryDx=0;entryDy=0;" edge="1" parent="1" target="B0IMBx4CsGX2oSIAb3AN-7">
          <mxGeometry width="50" height="50" relative="1" as="geometry">
            <mxPoint x="339" y="340" as="sourcePoint" />
            <mxPoint x="339.5" y="400" as="targetPoint" />
          </mxGeometry>
        </mxCell>
        <mxCell id="B0IMBx4CsGX2oSIAb3AN-17" value="" style="endArrow=classic;html=1;rounded=0;entryX=1;entryY=0.5;entryDx=0;entryDy=0;" edge="1" parent="1" target="B0IMBx4CsGX2oSIAb3AN-6">
          <mxGeometry width="50" height="50" relative="1" as="geometry">
            <mxPoint x="259" y="340" as="sourcePoint" />
            <mxPoint x="259.5" y="400" as="targetPoint" />
          </mxGeometry>
        </mxCell>
        <mxCell id="B0IMBx4CsGX2oSIAb3AN-18" value="" style="endArrow=classic;html=1;rounded=0;entryX=0.5;entryY=0;entryDx=0;entryDy=0;" edge="1" parent="1" target="B0IMBx4CsGX2oSIAb3AN-4">
          <mxGeometry width="50" height="50" relative="1" as="geometry">
            <mxPoint x="300" y="270" as="sourcePoint" />
            <mxPoint x="301" y="290" as="targetPoint" />
          </mxGeometry>
        </mxCell>
        <mxCell id="B0IMBx4CsGX2oSIAb3AN-19" value="" style="endArrow=classic;html=1;rounded=0;" edge="1" parent="1">
          <mxGeometry width="50" height="50" relative="1" as="geometry">
            <mxPoint x="299.5" y="160" as="sourcePoint" />
            <mxPoint x="299.5" y="210" as="targetPoint" />
          </mxGeometry>
        </mxCell>
        <mxCell id="B0IMBx4CsGX2oSIAb3AN-20" value="Đ" style="text;html=1;align=center;verticalAlign=middle;resizable=0;points=[];autosize=1;strokeColor=none;fillColor=none;" vertex="1" parent="1">
          <mxGeometry x="205" y="318" width="30" height="30" as="geometry" />
        </mxCell>
        <mxCell id="B0IMBx4CsGX2oSIAb3AN-21" value="Đ" style="text;html=1;align=center;verticalAlign=middle;resizable=0;points=[];autosize=1;strokeColor=none;fillColor=none;" vertex="1" parent="1">
          <mxGeometry x="355" y="318" width="30" height="30" as="geometry" />
        </mxCell>
        <mxCell id="B0IMBx4CsGX2oSIAb3AN-22" value="S" style="text;html=1;align=center;verticalAlign=middle;resizable=0;points=[];autosize=1;strokeColor=none;fillColor=none;" vertex="1" parent="1">
          <mxGeometry x="300" y="398" width="30" height="30" as="geometry" />
        </mxCell>
        <mxCell id="B0IMBx4CsGX2oSIAb3AN-23" value="" style="endArrow=none;html=1;rounded=0;" edge="1" parent="1">
          <mxGeometry width="50" height="50" relative="1" as="geometry">
            <mxPoint x="144.5" y="700" as="sourcePoint" />
            <mxPoint x="144.5" y="510" as="targetPoint" />
          </mxGeometry>
        </mxCell>
        <mxCell id="B0IMBx4CsGX2oSIAb3AN-24" value="" style="endArrow=none;html=1;rounded=0;" edge="1" parent="1">
          <mxGeometry width="50" height="50" relative="1" as="geometry">
            <mxPoint x="453.5" y="700" as="sourcePoint" />
            <mxPoint x="453.5" y="510" as="targetPoint" />
          </mxGeometry>
        </mxCell>
        <mxCell id="B0IMBx4CsGX2oSIAb3AN-25" value="" style="endArrow=none;html=1;rounded=0;" edge="1" parent="1" target="B0IMBx4CsGX2oSIAb3AN-11">
          <mxGeometry width="50" height="50" relative="1" as="geometry">
            <mxPoint x="300" y="700" as="sourcePoint" />
            <mxPoint x="300" y="645" as="targetPoint" />
          </mxGeometry>
        </mxCell>
        <mxCell id="B0IMBx4CsGX2oSIAb3AN-26" value="" style="endArrow=none;html=1;rounded=0;" edge="1" parent="1">
          <mxGeometry width="50" height="50" relative="1" as="geometry">
            <mxPoint x="144" y="700" as="sourcePoint" />
            <mxPoint x="460" y="700" as="targetPoint" />
          </mxGeometry>
        </mxCell>
        <mxCell id="B0IMBx4CsGX2oSIAb3AN-27" value="" style="endArrow=classic;html=1;rounded=0;" edge="1" parent="1">
          <mxGeometry width="50" height="50" relative="1" as="geometry">
            <mxPoint x="300" y="700" as="sourcePoint" />
            <mxPoint x="300" y="780" as="targetPoint" />
          </mxGeometry>
        </mxCell>
        <mxCell id="B0IMBx4CsGX2oSIAb3AN-28" value="End" style="ellipse;whiteSpace=wrap;html=1;" vertex="1" parent="1">
          <mxGeometry x="240" y="780" width="120" height="80" as="geometry" />
        </mxCell>
      </root>
    </mxGraphModel>
  </diagram>
</mxfile>
